#N canvas 1171 316 708 550 12;
#X msg 185 495 connect 192.168.178.56 10000;
#X obj 185 462 loadbang;
#X obj 67 495 netsend -u -b;
#X obj 507 53 netreceive -u -b 10001;
#X obj 507 120 o.display 179 28;
#N canvas 654 23 373 463 bundle2bytes 0;
#X obj 66 41 inlet;
#X obj 106 391 outlet;
#X obj 66 201 dev/o.downcast;
#X obj 66 168 o.pack /b;
#X obj 66 235 o.route /b;
#X obj 66 268 list split 1;
#X obj 106 345 list trim;
#X obj 66 67 route FullPacket;
#X obj 66 127 list trim;
#X obj 66 97 list prepend FullPacket;
#X obj 106 315 list prepend send;
#X connect 0 0 7 0;
#X connect 2 0 4 0;
#X connect 3 0 2 0;
#X connect 4 0 5 0;
#X connect 5 1 10 0;
#X connect 6 0 1 0;
#X connect 7 0 9 0;
#X connect 8 0 3 0;
#X connect 9 0 8 0;
#X connect 10 0 6 0;
#X restore 67 462 pd bundle2bytes;
#X obj 67 106 tgl 15 0 empty empty empty 17 7 0 10 -262144 -1 -1 0
1;
#N canvas 0 23 450 300 bytes2bundle 0;
#X obj 52 27 inlet;
#X obj 52 261 outlet;
#X obj 52 65 o.pack /list;
#X obj 52 101 o.expr.codebox 199 23 binhex b#2F626E646C203D2062756E646C65282F
b#6C69737429;
#X obj 52 156 o.route /bndl;
#X connect 0 0 2 0;
#X connect 2 0 3 0;
#X connect 3 0 4 0;
#X connect 4 0 1 0;
#X restore 507 82 pd bytes2bundle;
#X obj 67 177 o.expr.codebox 176 37 binhex b#2F402F642F3133203D20696E74333228
b#2F402F642F313329;
#X obj 85 288 o.compose 100 33 binhex b#2F242F642F32312C0A2F402F642F3133
b#;
#X obj 67 145 o.pack /@/d/13 1;
#X text 190 151 (pin 13 on Adafruit Feather);
#X text 190 137 Toggle the onboard LED;
#X text 255 176 Our sketch requires an int \,;
#X text 255 190 but pd only has floats;
#X text 214 286 Set the value of digital pin 13;
#X text 214 300 (onboard LED) to the value of pin 21;
#X obj 109 395 o.compose 145 47 binhex b#2F402F72203A20222F242F642F323122
b#2C0A2F402F642F3133203A20222F242F b#72222C0A2F2D203A20222F242F7222
;
#X obj 85 258 metro 20;
#X obj 85 235 tgl 15 0 empty empty empty 17 7 0 10 -262144 -1 -1 0
1;
#X obj 109 363 metro 20;
#X obj 109 340 tgl 15 0 empty empty empty 17 7 0 10 -262144 -1 -1 0
1;
#X text 259 392 Reads pin 21 \, assigns it to pin 13;
#X text 259 406 and then puts it in the output bundle;
#X text 259 420 so we can receive its value here.;
#X connect 0 0 2 0;
#X connect 1 0 0 0;
#X connect 3 0 7 0;
#X connect 5 0 2 0;
#X connect 6 0 10 0;
#X connect 7 0 4 0;
#X connect 8 0 5 0;
#X connect 9 0 5 0;
#X connect 10 0 8 0;
#X connect 17 0 5 0;
#X connect 18 0 9 0;
#X connect 19 0 18 0;
#X connect 20 0 17 0;
#X connect 21 0 20 0;
